<svg width="26" height="20" viewBox="0 0 26 20" fill="none" xmlns="http://www.w3.org/2000/svg">
<path d="M12.2708 18.2235V5.55029C11.3385 4.88443 10.3109 4.3851 9.18827 4.05228C8.06538 3.71946 6.94012 3.55305 5.8125 3.55305C5.0375 3.55305 4.35894 3.59944 3.77683 3.69222C3.19472 3.78501 2.54846 3.95723 1.83804 4.20889C1.63934 4.2752 1.49866 4.37046 1.41599 4.49467C1.33311 4.61867 1.29167 4.75527 1.29167 4.90445V16.5492C1.29167 16.781 1.37444 16.9508 1.53999 17.0584C1.70554 17.166 1.88777 17.1785 2.08669 17.0958C2.55858 16.9368 3.10377 16.8092 3.72226 16.7132C4.34075 16.6172 5.0375 16.5692 5.8125 16.5692C6.93883 16.5692 8.03514 16.6988 9.10141 16.958C10.1677 17.2172 11.2242 17.639 12.2708 18.2235ZM0 17.1604V4.67583C0 4.35614 0.0840659 4.0597 0.252198 3.78652C0.42033 3.51333 0.655844 3.32292 0.95874 3.21528C1.71716 2.88073 2.50626 2.63812 3.32604 2.48742C4.14582 2.33673 4.97464 2.26138 5.8125 2.26138C7.22343 2.26138 8.47613 2.44028 9.5706 2.79807C10.6653 3.15565 11.784 3.6863 12.9267 4.39005C13.1303 4.50285 13.2872 4.65355 13.3972 4.84213C13.5074 5.03093 13.5625 5.24879 13.5625 5.49571V18.2235C14.6092 17.639 15.6657 17.2172 16.7319 16.958C17.7982 16.6988 18.8945 16.5692 20.0208 16.5692C20.7958 16.5692 21.4926 16.6172 22.1111 16.7132C22.7296 16.8092 23.2748 16.9368 23.7466 17.0958C23.9456 17.1785 24.1278 17.166 24.2933 17.0584C24.4589 16.9508 24.5417 16.781 24.5417 16.5492V3.72452C24.5417 3.54153 24.6037 3.38815 24.7277 3.26436C24.8517 3.14058 25.0053 3.07868 25.1885 3.07868C25.3717 3.07868 25.5249 3.14058 25.6483 3.26436C25.7717 3.38815 25.8333 3.54153 25.8333 3.72452V17.1604C25.8333 17.696 25.6111 18.1036 25.1665 18.383C24.7217 18.6624 24.2485 18.7086 23.7466 18.5215C23.149 18.2897 22.5397 18.1215 21.9186 18.0171C21.2975 17.9129 20.6649 17.8608 20.0208 17.8608C18.9089 17.8608 17.8253 18.0044 16.77 18.2916C15.7147 18.579 14.7101 19.0026 13.7562 19.5623C13.6312 19.6368 13.4944 19.6926 13.3458 19.7299C13.1971 19.7671 13.0524 19.7857 12.9118 19.7857C12.771 19.7857 12.6274 19.7671 12.4811 19.7299C12.3349 19.6926 12.2002 19.6368 12.0771 19.5623C11.1232 19.0026 10.1186 18.579 9.0633 18.2916C8.00801 18.0044 6.92441 17.8608 5.8125 17.8608C5.14019 17.8608 4.47982 17.9171 3.83141 18.0297C3.1832 18.1423 2.5519 18.3228 1.9375 18.5713C1.46884 18.7583 1.02881 18.702 0.617417 18.4024C0.205806 18.1027 0 17.6887 0 17.1604ZM17.04 12.853V1.78217C17.04 1.55312 17.1069 1.34624 17.2408 1.16153C17.3747 0.976604 17.5488 0.848943 17.763 0.778547L20.0531 0.0481093C20.3048 -0.0429532 20.5362 -0.00474177 20.7474 0.162744C20.9586 0.33023 21.0642 0.546262 21.0642 0.810838V11.8817C21.0642 12.1108 20.9972 12.3177 20.8633 12.5024C20.7294 12.6873 20.5554 12.8149 20.3412 12.8853L18.051 13.6158C17.7994 13.7068 17.568 13.6686 17.3568 13.5011C17.1456 13.3337 17.04 13.1176 17.04 12.853Z" fill="#5F6368"/>
</svg>
