<svg width="21" height="24" viewBox="0 0 21 24" fill="none" xmlns="http://www.w3.org/2000/svg">
<path d="M2.08669 23.548C1.49209 23.548 0.99566 23.3489 0.597396 22.9507C0.199132 22.5524 0 22.056 0 21.4614V4.96807C0 4.37347 0.199132 3.87704 0.597396 3.47878C0.99566 3.08052 1.49209 2.88138 2.08669 2.88138H4.37165V0H5.76277V2.88138H15.0034V0H16.295V2.88138H18.58C19.1746 2.88138 19.671 3.08052 20.0693 3.47878C20.4675 3.87704 20.6667 4.37347 20.6667 4.96807V21.4614C20.6667 22.056 20.4675 22.5524 20.0693 22.9507C19.671 23.3489 19.1746 23.548 18.58 23.548H2.08669ZM2.08669 22.2564H18.58C18.7789 22.2564 18.9611 22.1736 19.1267 22.0081C19.2922 21.8425 19.375 21.6603 19.375 21.4614V10.1347H1.29167V21.4614C1.29167 21.6603 1.37444 21.8425 1.53999 22.0081C1.70554 22.1736 1.88777 22.2564 2.08669 22.2564Z" fill="#5F6368"/>
</svg>
