<svg width="17" height="17" viewBox="0 0 17 17" fill="none" xmlns="http://www.w3.org/2000/svg">
<path d="M9.47398 11.526C9.62887 11.5971 9.80338 11.6134 9.96874 11.5721C10.1341 11.5307 10.2805 11.4343 10.3837 11.2987L10.65 10.95C10.7897 10.7637 10.9709 10.6125 11.1792 10.5083C11.3874 10.4042 11.6171 10.35 11.85 10.35H14.1C14.4978 10.35 14.8793 10.508 15.1606 10.7893C15.4419 11.0706 15.6 11.4522 15.6 11.85V14.1C15.6 14.4978 15.4419 14.8793 15.1606 15.1606C14.8793 15.4419 14.4978 15.6 14.1 15.6C10.5196 15.6 7.08578 14.1777 4.55403 11.6459C2.02229 9.11418 0.599976 5.6804 0.599976 2.09998C0.599976 1.70215 0.758011 1.32062 1.03932 1.03932C1.32062 0.758011 1.70215 0.599976 2.09998 0.599976H4.34998C4.7478 0.599976 5.12933 0.758011 5.41064 1.03932C5.69194 1.32062 5.84998 1.70215 5.84998 2.09998V4.34998C5.84998 4.58284 5.79576 4.81251 5.69162 5.0208C5.58747 5.22908 5.43627 5.41026 5.24998 5.54998L4.89898 5.81323C4.76129 5.91836 4.66424 6.06791 4.62432 6.23649C4.5844 6.40506 4.60406 6.58226 4.67998 6.73798C5.70499 8.81988 7.39079 10.5036 9.47398 11.526Z" stroke="black" stroke-width="1.2" stroke-linecap="round" stroke-linejoin="round"/>
</svg>
