<svg width="16" height="16" viewBox="0 0 16 16" fill="none" xmlns="http://www.w3.org/2000/svg">
<path d="M1.24377 11.2563C1.35405 11.5345 1.3786 11.8393 1.31427 12.1315L0.515518 14.599C0.489782 14.7242 0.496436 14.8538 0.53485 14.9756C0.573264 15.0975 0.642165 15.2075 0.735019 15.2952C0.827872 15.383 0.9416 15.4455 1.06542 15.477C1.18924 15.5085 1.31904 15.5078 1.44252 15.475L4.00227 14.7265C4.27806 14.6718 4.56366 14.6957 4.82652 14.7955C6.42806 15.5434 8.24229 15.7017 9.94913 15.2423C11.656 14.7829 13.1457 13.7355 14.1555 12.2848C15.1654 10.8341 15.6304 9.07333 15.4685 7.31318C15.3066 5.55304 14.5283 3.90662 13.2708 2.66442C12.0133 1.42221 10.3575 0.664049 8.59555 0.523693C6.83356 0.383336 5.07862 0.869807 3.64035 1.89727C2.20208 2.92474 1.17292 4.42718 0.734438 6.1395C0.29596 7.85182 0.476345 9.66399 1.24377 11.2563Z" stroke="black" stroke-linecap="round" stroke-linejoin="round"/>
</svg>
