<svg width="15" height="15" viewBox="0 0 15 15" fill="none" xmlns="http://www.w3.org/2000/svg">
<path d="M7.125 9.20775L9.09094 10.6961C9.22644 10.7914 9.36319 10.7945 9.50119 10.7055C9.63919 10.6166 9.68175 10.4919 9.62887 10.3313L8.88469 7.86919L10.8049 6.50362C10.9459 6.39862 10.9887 6.26775 10.9333 6.111C10.8781 5.95437 10.768 5.87606 10.6031 5.87606H8.25281L7.45237 3.28988C7.395 3.12938 7.28594 3.04912 7.12519 3.04912C6.96444 3.04912 6.85525 3.12938 6.79763 3.28988L5.99719 5.87606H3.64688C3.482 5.87606 3.37194 5.95437 3.31669 6.111C3.26131 6.26775 3.30412 6.39862 3.44512 6.50362L5.36531 7.86919L4.62113 10.3313C4.56825 10.4919 4.61081 10.6166 4.74881 10.7055C4.88681 10.7945 5.02356 10.7914 5.15906 10.6961L7.125 9.20775ZM7.12631 14.25C6.14081 14.25 5.2145 14.063 4.34737 13.689C3.48025 13.315 2.726 12.8074 2.08463 12.1663C1.44325 11.5252 0.935437 10.7712 0.561187 9.9045C0.187062 9.03775 0 8.11169 0 7.12631C0 6.14081 0.187 5.2145 0.561 4.34737C0.935 3.48025 1.44256 2.726 2.08369 2.08463C2.72481 1.44325 3.47875 0.935437 4.3455 0.561187C5.21225 0.187062 6.13831 0 7.12369 0C8.10919 0 9.0355 0.187 9.90263 0.561C10.7698 0.935 11.524 1.44256 12.1654 2.08369C12.8068 2.72481 13.3146 3.47875 13.6888 4.3455C14.0629 5.21225 14.25 6.13831 14.25 7.12369C14.25 8.10919 14.063 9.0355 13.689 9.90263C13.315 10.7698 12.8074 11.524 12.1663 12.1654C11.5252 12.8068 10.7712 13.3146 9.9045 13.6888C9.03775 14.0629 8.11169 14.25 7.12631 14.25ZM7.125 13.125C8.7875 13.125 10.2031 12.5406 11.3719 11.3719C12.5406 10.2031 13.125 8.7875 13.125 7.125C13.125 5.4625 12.5406 4.04688 11.3719 2.87813C10.2031 1.70938 8.7875 1.125 7.125 1.125C5.4625 1.125 4.04688 1.70938 2.87813 2.87813C1.70938 4.04688 1.125 5.4625 1.125 7.125C1.125 8.7875 1.70938 10.2031 2.87813 11.3719C4.04688 12.5406 5.4625 13.125 7.125 13.125Z" fill="#FDB918"/>
</svg>
