<svg width="16" height="13" viewBox="0 0 16 13" fill="none" xmlns="http://www.w3.org/2000/svg">
<path d="M3.48184 0C3.99487 0 4.48688 0.203798 4.84964 0.56656C5.2124 0.929323 5.4162 1.42133 5.4162 1.93436C5.4162 2.44738 5.2124 2.93939 4.84964 3.30216C4.48688 3.66492 3.99487 3.86872 3.48184 3.86872C2.96882 3.86872 2.47681 3.66492 2.11405 3.30216C1.75128 2.93939 1.54749 2.44738 1.54749 1.93436C1.54749 1.42133 1.75128 0.929323 2.11405 0.56656C2.47681 0.203798 2.96882 0 3.48184 0ZM12.3799 0C12.8929 0 13.3849 0.203798 13.7477 0.56656C14.1104 0.929323 14.3142 1.42133 14.3142 1.93436C14.3142 2.44738 14.1104 2.93939 13.7477 3.30216C13.3849 3.66492 12.8929 3.86872 12.3799 3.86872C11.8669 3.86872 11.3749 3.66492 11.0121 3.30216C10.6493 2.93939 10.4455 2.44738 10.4455 1.93436C10.4455 1.42133 10.6493 0.929323 11.0121 0.56656C11.3749 0.203798 11.8669 0 12.3799 0ZM0 7.22241C0 5.79824 1.15578 4.64246 2.57995 4.64246H3.61241C3.99687 4.64246 4.36198 4.72709 4.69082 4.877C4.65938 5.05109 4.64488 5.23244 4.64488 5.4162C4.64488 6.33986 5.05109 7.16921 5.69185 7.73743C5.68701 7.73743 5.68218 7.73743 5.67492 7.73743H0.515023C0.232123 7.73743 0 7.50531 0 7.22241ZM9.79994 7.73743C9.7951 7.73743 9.79027 7.73743 9.78301 7.73743C10.4262 7.16921 10.83 6.33986 10.83 5.4162C10.83 5.23244 10.8131 5.05351 10.784 4.877C11.1129 4.72467 11.478 4.64246 11.8624 4.64246H12.8949C14.3191 4.64246 15.4749 5.79824 15.4749 7.22241C15.4749 7.50773 15.2427 7.73743 14.9598 7.73743H9.79994ZM5.4162 5.4162C5.4162 4.80057 5.66076 4.21016 6.09607 3.77484C6.53139 3.33953 7.1218 3.09497 7.73743 3.09497C8.35306 3.09497 8.94347 3.33953 9.37879 3.77484C9.8141 4.21016 10.0587 4.80057 10.0587 5.4162C10.0587 6.03183 9.8141 6.62224 9.37879 7.05756C8.94347 7.49287 8.35306 7.73743 7.73743 7.73743C7.1218 7.73743 6.53139 7.49287 6.09607 7.05756C5.66076 6.62224 5.4162 6.03183 5.4162 5.4162ZM3.09497 11.7343C3.09497 9.95469 4.53849 8.51117 6.3181 8.51117H9.15677C10.9364 8.51117 12.3799 9.95469 12.3799 11.7343C12.3799 12.0897 12.0922 12.3799 11.7343 12.3799H3.74056C3.38513 12.3799 3.09497 12.0922 3.09497 11.7343Z" fill="white"/>
</svg>
