<svg width="26" height="26" viewBox="0 0 26 26" fill="none" xmlns="http://www.w3.org/2000/svg">
<path d="M12.9326 0.620117C13.5568 0.620117 14.1757 0.784831 14.9902 1.16504C15.8175 1.55118 16.7996 2.13618 18.1611 2.94727L19.9521 4.01367C21.4514 4.90678 22.5337 5.55177 23.332 6.15234C24.1184 6.74395 24.582 7.2591 24.873 7.86621C25.1638 8.47294 25.2736 9.15413 25.2402 10.1318C25.2063 11.125 25.0285 12.3648 24.7812 14.083L24.4209 16.5889C24.1034 18.7954 23.8717 20.3925 23.5371 21.6045C23.2072 22.7991 22.7955 23.5432 22.1641 24.0869C21.532 24.6311 20.73 24.9314 19.4902 25.0869C18.2335 25.2445 16.6078 25.2451 14.3633 25.2451H11.502C9.25746 25.2451 7.63174 25.2445 6.375 25.0869C5.13516 24.9314 4.3332 24.6311 3.70117 24.0869C3.06973 23.5432 2.65798 22.799 2.32812 21.6045C1.9935 20.3925 1.76279 18.7953 1.44531 16.5889L1.08398 14.083C0.836757 12.3648 0.659905 11.125 0.625977 10.1318C0.592618 9.15415 0.701434 8.47293 0.992188 7.86621C1.28325 7.25908 1.7478 6.74396 2.53418 6.15234C3.33242 5.55187 4.41415 4.90659 5.91309 4.01367L7.7041 2.94727C9.06562 2.13622 10.0478 1.55118 10.875 1.16504C11.6895 0.784845 12.3085 0.62013 12.9326 0.620117Z" fill="#00ABBC" stroke="#00ABBC" stroke-width="1.23963"/>
</svg>
