<svg width="36" height="36" viewBox="0 0 36 36" fill="none" xmlns="http://www.w3.org/2000/svg">
<mask id="mask0_0_798" style="mask-type:luminance" maskUnits="userSpaceOnUse" x="0" y="0" width="36" height="36">
<path d="M36 0H0V36H36V0Z" fill="white"/>
</mask>
<g mask="url(#mask0_0_798)">
<path d="M18.0457 36C17.478 36 16.9981 35.5889 16.8606 35.0381C16.4223 33.2825 15.5834 31.4156 14.3438 29.4376C12.875 27.0625 10.7812 24.8594 8.06251 22.8281C5.69788 21.0409 3.33326 19.8221 0.968648 19.172C0.408609 19.0181 0 18.5215 0 17.9406C0 17.3712 0.392891 16.8803 0.940451 16.724C3.25881 16.062 5.4922 14.9874 7.64062 13.5C10.1094 11.7813 12.1719 9.71874 13.8281 7.3125C15.2933 5.16897 16.2991 3.04898 16.8455 0.952573C16.9887 0.403371 17.4722 0 18.0398 0C18.6136 0 19.1005 0.412304 19.2402 0.968994C19.5556 2.22577 20.0484 3.51216 20.7187 4.82812C21.5626 6.45313 22.6406 8.01562 23.9531 9.51563C25.2968 10.9844 26.797 12.3125 28.4531 13.5C30.6175 15.0342 32.8176 16.112 35.0539 16.7335C35.6026 16.886 36 17.3744 36 17.9437C36 18.5216 35.5905 19.0141 35.0332 19.1669C33.6157 19.5556 32.1566 20.1823 30.6563 21.0469C28.8437 22.1094 27.1562 23.375 25.5937 24.8438C24.0313 26.2813 22.75 27.7969 21.7499 29.3906C20.5079 31.3727 19.6681 33.2541 19.2307 35.035C19.0949 35.5874 18.6143 36 18.0457 36Z" fill="#090B5E" fill-opacity="0.3"/>
</g>
</svg>
