<svg width="19" height="18" viewBox="0 0 19 18" fill="none" xmlns="http://www.w3.org/2000/svg">
<path d="M9.04167 7.75C7.97604 7.75 7.0638 7.37057 6.30495 6.61172C5.54609 5.85287 5.16667 4.94063 5.16667 3.875C5.16667 2.80938 5.54609 1.89714 6.30495 1.13828C7.0638 0.379427 7.97604 0 9.04167 0C10.1073 0 11.0195 0.379427 11.7784 1.13828C12.5372 1.89714 12.9167 2.80938 12.9167 3.875C12.9167 4.94063 12.5372 5.85287 11.7784 6.61172C11.0195 7.37057 10.1073 7.75 9.04167 7.75ZM0 15.7486V14.9636C0 14.4304 0.155215 13.9315 0.465646 13.4669C0.776292 13.0026 1.19404 12.642 1.71889 12.3851C2.93779 11.8007 4.15744 11.3623 5.37785 11.0699C6.59826 10.7778 7.81954 10.6317 9.04167 10.6317C10.2638 10.6317 11.4851 10.7778 12.7055 11.0699C13.9259 11.3623 15.1455 11.8007 16.3645 12.3851C16.8893 12.642 17.307 13.0026 17.6177 13.4669C17.9281 13.9315 18.0833 14.4304 18.0833 14.9636V15.7486C18.0833 16.1278 17.9546 16.446 17.6971 16.7035C17.4397 16.9612 17.1213 17.09 16.7419 17.09H1.3414C0.962076 17.09 0.643681 16.9612 0.386209 16.7035C0.128736 16.446 0 16.1278 0 15.7486ZM1.29167 15.7984H16.7917V14.9636C16.7917 14.6771 16.6993 14.408 16.5146 14.1563C16.3301 13.9047 16.0747 13.6919 15.7483 13.5179C14.6853 13.003 13.5892 12.6085 12.4601 12.3344C11.3309 12.0604 10.1915 11.9234 9.04167 11.9234C7.89187 11.9234 6.7524 12.0604 5.62327 12.3344C4.49414 12.6085 3.39805 13.003 2.33501 13.5179C2.00865 13.6919 1.75322 13.9047 1.56873 14.1563C1.38402 14.408 1.29167 14.6771 1.29167 14.9636V15.7984ZM9.04167 6.45833C9.75208 6.45833 10.3602 6.20538 10.8661 5.69948C11.372 5.19358 11.625 4.58542 11.625 3.875C11.625 3.16458 11.372 2.55642 10.8661 2.05052C10.3602 1.54462 9.75208 1.29167 9.04167 1.29167C8.33125 1.29167 7.72309 1.54462 7.21719 2.05052C6.71129 2.55642 6.45833 3.16458 6.45833 3.875C6.45833 4.58542 6.71129 5.19358 7.21719 5.69948C7.72309 6.20538 8.33125 6.45833 9.04167 6.45833Z" fill="#5F6368"/>
</svg>
